<svg xmlns="http://www.w3.org/2000/svg" viewBox="0 0 363.42 50.89"><defs><style>.b595e456-8252-4246-a003-363877181b4b{fill:#059669;}.fedb1673-f2f1-45e9-9da1-9893957a53d0{fill:#ebe9d4;}</style></defs><g id="ad49aed3-ed58-4d77-97cd-801e32c5b127" data-name="Layer 2"><g id="aa2797e3-60cb-4ffc-a20c-b6a78d2f0c77" data-name="Layer 1"><path class="b595e456-8252-4246-a003-363877181b4b" d="M184.18,17.63a.67.67,0,0,1,.3.62v4.88a.62.62,0,0,1-.39.61,3.11,3.11,0,0,1-1.29.19,4.27,4.27,0,0,1-.92-.08.8.8,0,0,1-.45-.25.73.73,0,0,1-.13-.47,2.9,2.9,0,0,0-.69-2,2.52,2.52,0,0,0-2-.76A3.08,3.08,0,0,0,176,21.61a6.16,6.16,0,0,0-.92,3.65,6,6,0,0,0,1,3.65,3.25,3.25,0,0,0,2.75,1.29,7.39,7.39,0,0,0,2.12-.3,12.49,12.49,0,0,0,2.21-.91,1,1,0,0,1,.38-.1c.4,0,.73.35,1,1.06a2.5,2.5,0,0,1,.18.86,1,1,0,0,1-.58.93,12.21,12.21,0,0,1-5.42,1.34,7,7,0,0,1-3.67-.95,6.32,6.32,0,0,1-2.46-2.72,9.32,9.32,0,0,1-.87-4.15,9.4,9.4,0,0,1,.85-4.13,6.37,6.37,0,0,1,2.36-2.72,6.19,6.19,0,0,1,3.4-1,3.73,3.73,0,0,1,3.31,1.6v-.8a.63.63,0,0,1,.36-.61,2.84,2.84,0,0,1,1.18-.19A2.22,2.22,0,0,1,184.18,17.63Z"></path><path class="b595e456-8252-4246-a003-363877181b4b" d="M200.66,18.4a6.32,6.32,0,0,1,2.46,2.72,9.28,9.28,0,0,1,.87,4.14,9.32,9.32,0,0,1-.87,4.15,6.32,6.32,0,0,1-2.46,2.72,7.56,7.56,0,0,1-7.34,0,6.36,6.36,0,0,1-2.45-2.72,9.32,9.32,0,0,1-.87-4.15,9.28,9.28,0,0,1,.87-4.14,6.36,6.36,0,0,1,2.45-2.72,7.56,7.56,0,0,1,7.34,0Zm-6.34,3.21a6.16,6.16,0,0,0-.92,3.65,6.22,6.22,0,0,0,.92,3.66,3.44,3.44,0,0,0,5.35,0,6.22,6.22,0,0,0,.92-3.66,6.16,6.16,0,0,0-.92-3.65,3.45,3.45,0,0,0-5.35,0Z"></path><path class="b595e456-8252-4246-a003-363877181b4b" d="M222.09,17.92a.88.88,0,0,1,.19.64v3.83a.64.64,0,0,1-.36.62,2.9,2.9,0,0,1-1.19.18,2.2,2.2,0,0,1-1.07-.18.65.65,0,0,1-.3-.62V20.46h-5v3.87h3.86a.66.66,0,0,1,.62.3,2.22,2.22,0,0,1,.18,1.08,2.2,2.2,0,0,1-.18,1.07.67.67,0,0,1-.62.28h-3.86V30.2h2.76a.88.88,0,0,1,.47.11.63.63,0,0,1,.24.39,2.73,2.73,0,0,1,.09.81,2.82,2.82,0,0,1-.09.81.6.6,0,0,1-.24.38.89.89,0,0,1-.47.1h-7.54a.86.86,0,0,1-.47-.1.61.61,0,0,1-.25-.38,2.88,2.88,0,0,1-.08-.81,2.8,2.8,0,0,1,.08-.81.64.64,0,0,1,.25-.39.86.86,0,0,1,.47-.11h1.61V20.34h-1.61a.86.86,0,0,1-.47-.11.58.58,0,0,1-.25-.38,2.8,2.8,0,0,1-.08-.81,2.84,2.84,0,0,1,.08-.81.64.64,0,0,1,.25-.39.86.86,0,0,1,.47-.11h11.83A.89.89,0,0,1,222.09,17.92Z"></path><path class="b595e456-8252-4246-a003-363877181b4b" d="M241,17.92a.88.88,0,0,1,.19.64v3.83a.63.63,0,0,1-.37.62,2.84,2.84,0,0,1-1.18.18,2.28,2.28,0,0,1-1.08-.18.66.66,0,0,1-.29-.62V20.46h-4.95v3.87h3.86a.67.67,0,0,1,.62.3,2.22,2.22,0,0,1,.18,1.08,2.2,2.2,0,0,1-.18,1.07.68.68,0,0,1-.62.28h-3.86V30.2H236a.86.86,0,0,1,.47.11.64.64,0,0,1,.25.39,2.8,2.8,0,0,1,.08.81,2.88,2.88,0,0,1-.08.81.61.61,0,0,1-.25.38.86.86,0,0,1-.47.1h-7.54a.89.89,0,0,1-.47-.1.65.65,0,0,1-.25-.38,3.32,3.32,0,0,1-.08-.81,3.2,3.2,0,0,1,.08-.81.68.68,0,0,1,.25-.39.88.88,0,0,1,.47-.11h1.61V20.34h-1.61a.88.88,0,0,1-.47-.11.62.62,0,0,1-.25-.38,3.2,3.2,0,0,1-.08-.81,3.26,3.26,0,0,1,.08-.81.68.68,0,0,1,.25-.39.88.88,0,0,1,.47-.11h11.83A.92.92,0,0,1,241,17.92Z"></path><path class="b595e456-8252-4246-a003-363877181b4b" d="M259.57,17.92a.88.88,0,0,1,.19.64v3.83a.63.63,0,0,1-.37.62,2.84,2.84,0,0,1-1.18.18,2.28,2.28,0,0,1-1.08-.18.66.66,0,0,1-.29-.62V20.46h-5.08v3.21h3.1a.66.66,0,0,1,.62.3,2.22,2.22,0,0,1,.18,1.08,2.2,2.2,0,0,1-.18,1.07.67.67,0,0,1-.62.28h-3.1v3.67H257V27.51a.64.64,0,0,1,.37-.62,3.05,3.05,0,0,1,1.23-.18,2.46,2.46,0,0,1,1.14.18.66.66,0,0,1,.31.62V32a.88.88,0,0,1-.2.63.83.83,0,0,1-.63.19H247.36a.86.86,0,0,1-.47-.1.65.65,0,0,1-.25-.38,3.32,3.32,0,0,1-.08-.81,3.2,3.2,0,0,1,.08-.81.68.68,0,0,1,.25-.39.86.86,0,0,1,.47-.11h1.23V20.34h-1.23a.86.86,0,0,1-.47-.11.62.62,0,0,1-.25-.38,3.2,3.2,0,0,1-.08-.81,3.26,3.26,0,0,1,.08-.81.68.68,0,0,1,.25-.39.86.86,0,0,1,.47-.11h11.58A.91.91,0,0,1,259.57,17.92Z"></path><path class="b595e456-8252-4246-a003-363877181b4b" d="M278.44,17.92a.92.92,0,0,1,.19.64v3.83a.65.65,0,0,1-.37.62,2.87,2.87,0,0,1-1.18.18A2.22,2.22,0,0,1,276,23a.64.64,0,0,1-.29-.62V20.46h-5.08v3.21h3.1a.67.67,0,0,1,.62.3,2.22,2.22,0,0,1,.18,1.08,2.2,2.2,0,0,1-.18,1.07.68.68,0,0,1-.62.28h-3.1v3.67h5.2V27.51a.65.65,0,0,1,.38-.62,3,3,0,0,1,1.22-.18,2.53,2.53,0,0,1,1.15.18.66.66,0,0,1,.3.62V32a.88.88,0,0,1-.19.63.86.86,0,0,1-.63.19H266.22a.89.89,0,0,1-.47-.1.6.6,0,0,1-.24-.38,2.82,2.82,0,0,1-.09-.81,2.73,2.73,0,0,1,.09-.81.63.63,0,0,1,.24-.39.88.88,0,0,1,.47-.11h1.24V20.34h-1.24a.88.88,0,0,1-.47-.11.57.57,0,0,1-.24-.38,2.73,2.73,0,0,1-.09-.81,2.78,2.78,0,0,1,.09-.81.63.63,0,0,1,.24-.39.88.88,0,0,1,.47-.11H277.8A.92.92,0,0,1,278.44,17.92Z"></path><path class="b595e456-8252-4246-a003-363877181b4b" d="M311.93,17.63a.68.68,0,0,1,.29.62v4.88a.62.62,0,0,1-.39.61,3,3,0,0,1-1.28.19,4.38,4.38,0,0,1-.93-.08.87.87,0,0,1-.45-.25.8.8,0,0,1-.12-.47,2.9,2.9,0,0,0-.69-2,2.54,2.54,0,0,0-2-.76,3.08,3.08,0,0,0-2.68,1.27,6.17,6.17,0,0,0-.91,3.65,5.94,5.94,0,0,0,1,3.65,3.24,3.24,0,0,0,2.75,1.29,7.49,7.49,0,0,0,2.12-.3,12.8,12.8,0,0,0,2.21-.91.94.94,0,0,1,.38-.1c.4,0,.73.35,1,1.06a2.5,2.5,0,0,1,.18.86,1,1,0,0,1-.59.93,12.21,12.21,0,0,1-5.42,1.34,7,7,0,0,1-3.67-.95,6.3,6.3,0,0,1-2.45-2.72,9.32,9.32,0,0,1-.87-4.15,9.4,9.4,0,0,1,.85-4.13,6.34,6.34,0,0,1,2.35-2.72,6.2,6.2,0,0,1,3.41-1,3.72,3.72,0,0,1,3.3,1.6v-.8a.63.63,0,0,1,.37-.61,2.81,2.81,0,0,1,1.18-.19A2.28,2.28,0,0,1,311.93,17.63Z"></path><path class="b595e456-8252-4246-a003-363877181b4b" d="M328.41,18.4a6.3,6.3,0,0,1,2.45,2.72,9.28,9.28,0,0,1,.87,4.14,9.32,9.32,0,0,1-.87,4.15,6.3,6.3,0,0,1-2.45,2.72,7.56,7.56,0,0,1-7.34,0,6.32,6.32,0,0,1-2.46-2.72,9.32,9.32,0,0,1-.87-4.15,9.28,9.28,0,0,1,.87-4.14,6.32,6.32,0,0,1,2.46-2.72,7.56,7.56,0,0,1,7.34,0Zm-6.35,3.21a6.17,6.17,0,0,0-.91,3.65,6.22,6.22,0,0,0,.91,3.66,3.45,3.45,0,0,0,5.36,0,6.22,6.22,0,0,0,.91-3.66,6.17,6.17,0,0,0-.91-3.65,3.46,3.46,0,0,0-5.36,0Z"></path><path class="b595e456-8252-4246-a003-363877181b4b" d="M345.2,28.29a.65.65,0,0,1,.5.62v3.22a.66.66,0,0,1-.5.62,5.09,5.09,0,0,1-1.6.18,5.18,5.18,0,0,1-1.6-.18.65.65,0,0,1-.49-.62V28.91a.64.64,0,0,1,.49-.62,5.18,5.18,0,0,1,1.6-.18A5.09,5.09,0,0,1,345.2,28.29Z"></path><path class="b595e456-8252-4246-a003-363877181b4b" d="M363.42,50.89H151.09V0H363.42Zm-210.33-2H361.42V2H153.09Z"></path><path class="fedb1673-f2f1-45e9-9da1-9893957a53d0" d="M23.81,5.58c-.15-1.44-2.36-1.76-3.16-1.87a3.29,3.29,0,0,0-.76.09c-.93-.06-1.79-.09-2.55-.09h-2c-.38-.41-.59-.54-.88-.54l-.39.08a1.16,1.16,0,0,1-.48-.14l-.11,0-.69.1A6.51,6.51,0,0,0,11.57,3H10a1.67,1.67,0,0,0-1.51.74l-3.13.09a1.62,1.62,0,0,1-.68-.16l-.11,0-.11,0A12.48,12.48,0,0,1,2,3.81H1.75a.52.52,0,0,0-.5.33A5.27,5.27,0,0,0,0,6.2l0,.12c0,.09,0,.3.46,3.09.16,1.05.85,2.28,3.16,2.28l.16,0a6.92,6.92,0,0,1,2-.52,13.8,13.8,0,0,0,1.56.18h.59a1.9,1.9,0,0,0,.41,0c0,.37,0,.66,0,.88v2.76a3.42,3.42,0,0,0,.18.9A19.44,19.44,0,0,1,8.26,19l0,.08,0,.08a7.19,7.19,0,0,1,.18,1.13,11.7,11.7,0,0,1-.53,3.95l0,.1v.1a18.62,18.62,0,0,1,.36,2.25l-.17,5,.17,1.81a8.1,8.1,0,0,1-.44,2.23v.29l0,.13a6.57,6.57,0,0,1,.43,1.38A16.6,16.6,0,0,0,8,40.5l0,.39h.21V41c0,.59-.06,1.82-.18,3.68A1.93,1.93,0,0,0,8.4,45.9c.45,1.22,1.57,1.85,3.38,1.85a24.19,24.19,0,0,0,2.86-.23.65.65,0,0,0,.2,0h.39l.09-.06c1-.64,1.46-1.18,1.46-1.73-.13-1.37-.18-2.39-.18-3,0-.39,0-1.19.17-2.43a23.62,23.62,0,0,0-.45-2.9c0-.62,0-1.73-.09-3.29a2.1,2.1,0,0,1,.08-.56v-.13c-.05-.44-.08-.89-.09-1.34V28.47a3.59,3.59,0,0,1,.24-1.58l.05-.11L16,23.28c.07-3.54.13-5.78.19-6.7A25.59,25.59,0,0,1,16,13.82c0-.2.06-1,.16-2.42,1.43-.1,2.42-.15,2.95-.16a5.32,5.32,0,0,0,1.68.27l.47-.07a9.48,9.48,0,0,0,1.49.26l.16,0,.12-.11a2.4,2.4,0,0,0,.86-1.87V8.35a4.65,4.65,0,0,1,.25-1.7l.05-.11,0-.12a3.58,3.58,0,0,0-.27-.84"></path><path class="fedb1673-f2f1-45e9-9da1-9893957a53d0" d="M58.93,3.29l-.17-.07-.16.08a10.05,10.05,0,0,1-2.45.23l-1-.27H55.1c-.85,0-1.92.42-2.21,2.44v.12a15.25,15.25,0,0,1,.36,2.33,17.1,17.1,0,0,1-.18,1.74,7.28,7.28,0,0,1-.69,3.45l0,.17a36.91,36.91,0,0,1-.64,7.19v.74h-.21v.36a7.58,7.58,0,0,1-.44,2.8l0,.1.11.59v1.09a13.43,13.43,0,0,0-.37,3.4c-.25,1.73-.43,3.13-.55,4.22L50,33a18.17,18.17,0,0,0-.82-4.74v-.85a2.29,2.29,0,0,0-.1-.78c-.11-3.7-.24-4.92-.46-5.32,0-.94-.1-2.32-.27-4.06V13.38c-.25-2.18-.46-3.7-.65-4.59V8.32a11,11,0,0,1,.36-1.94l0,0V6.27c-.13-1.72-.66-2.73-1.57-3l-.1,0s-.09,0-1.38.19H42.89a1.59,1.59,0,0,0-.8.18C40.34,3.68,40,4.55,40,5.27v.46A2.73,2.73,0,0,0,40.24,7c-.06,1.24-.09,2.27-.09,3v1.13a13.11,13.11,0,0,1-.54,3v3a14.89,14.89,0,0,1-.24,1.61h-.11l0,.34a15.43,15.43,0,0,1-.53,3.58l0,.09,0,.1a5,5,0,0,1,.09.77v.55a19.45,19.45,0,0,1-.55,3.09l0,.11,0,.11a2,2,0,0,1,.17.62l-.29,1.45v.87l-.52,3.28c-.08-.38-.21-.91-.41-1.66V31c-.68-4.22-.82-5.35-.82-5.61-.43-2.94-.64-4.7-.64-5.23s0-1.26.09-2.34c-.13-1.37-.33-2.88-.59-4.41-.17-2.45-.37-3.36-.61-3.69.16-1.53.25-2.8.25-3.8a2.5,2.5,0,0,0-.38-1.39A1.32,1.32,0,0,0,33,3.27h-.55a5.78,5.78,0,0,0-1,.18h-1A7.3,7.3,0,0,0,28.34,3h-.55c-.79,0-1.35.68-1.65,2.12,0,.07,0,.16.56,2.69l1.09,3.45a13.79,13.79,0,0,0,.38,2.66,28.6,28.6,0,0,0,.36,4v1.23l1.65,13a.9.9,0,0,0-.09.33l0,.11c.18.59.64,3.38,1.36,8.21v.55a4.4,4.4,0,0,1-.17,1.2v.09a.69.69,0,0,0,.1.37c.11,1.65.24,2.35.47,2.61.23,1.4,2.66,1.65,3.51,1.72h1.29a10.35,10.35,0,0,1,2-.36l1.13.09a1.94,1.94,0,0,0,1.92-1.44l0-.12a1.55,1.55,0,0,0,0-.21,1.36,1.36,0,0,0,.1-.21l0-.13c0-.06.06-.49.46-3.18v-.07l0-.06c-.07-.34-.13-.68-.17-1l.09-.32a5.4,5.4,0,0,1,.6-2.3,11.14,11.14,0,0,0,.5-4.25c.27-1.63.46-2.89.56-3.75V33.2a30.16,30.16,0,0,0,.55,3.87A29.09,29.09,0,0,0,45.12,42,10.32,10.32,0,0,0,45,43.22v1.29a3.22,3.22,0,0,0,.17,1.11l-.08,0v.23a1.41,1.41,0,0,0,.35.88l.1.11.14,0c3,.38,4.91.56,5.85.56a7.4,7.4,0,0,1,1,.26l.09,0,.09,0a2.34,2.34,0,0,0,1.27-.55,1.41,1.41,0,0,0,1.42-1.55v-.56a26.25,26.25,0,0,1,.9-5.83l0-.08v-.08a8.24,8.24,0,0,1-.18-1.41V37.3a22.21,22.21,0,0,1,.46-3V33.15a26.94,26.94,0,0,1,.65-4.3c.42-5.29.82-8.52,1.19-9.67.19-1.24.49-4.12.91-8.55a29.36,29.36,0,0,0,1.32-5,2.57,2.57,0,0,0-1.79-2.36"></path><path class="fedb1673-f2f1-45e9-9da1-9893957a53d0" d="M84.6,21.42c0-.1,0-.51.09-1.26l0-.18-.14-.12a4,4,0,0,1-.33-.31c0-1.17,0-2.2.09-3.1,0-.13,0-.48-.1-1,.06-1.19.1-2,.1-2.4l-.11-3a5.71,5.71,0,0,0-1.43-2.78,44.32,44.32,0,0,1-3.65-2.91A11.52,11.52,0,0,0,74.69,3h-.45c-1.68.37-3.23.65-4.59.83a2.8,2.8,0,0,0-2.78,1.34,15.05,15.05,0,0,0-2.29,2.62c-.53.18-1,1.14-1.53,4.39v3.52l.37,2.81c0,2.75,0,6.33.09,10.68A13,13,0,0,1,63.7,31v1.63c-.19,2.06-.19,2.19-.19,2.24v1.39l-.28,2,.32,1.35a9.49,9.49,0,0,1,.89,1.94,6.06,6.06,0,0,0,2.15,3.91,7.56,7.56,0,0,1,2,1l.07.06.1,0a39.69,39.69,0,0,1,3.83,1.09l1.56,0a8.39,8.39,0,0,0,1.29-.27h1.93c.78,0,2-.54,3.67-1.68a7.86,7.86,0,0,1,1.55-1.36h.21l.1-.18a9.21,9.21,0,0,0,1.53-4.58V32.41c0-3.92.12-7.2.36-9.79v-.09c-.11-.66-.17-1-.17-1.11m-8.17.66c.38,3.46.46,4.34.46,4.47v6.79s0,.32-.18,1.75V38a2.81,2.81,0,0,1-1.19,2.66.63.63,0,0,0-.23-.08h-1c-1.9-.45-2.82-1.26-2.82-2.5V34.45c0-.64,0-1.63.09-2.93v-.1l0-.08a2.13,2.13,0,0,1-.24-.85v-3.2a7.25,7.25,0,0,1,.18-1.39,3.38,3.38,0,0,0-.27-1.25c.06-.82.09-1.55.09-2.15v-8c.11-2.61.46-2.92.46-2.94H72l.1-.2c.29-.61.92-.9,1.94-.9h.74c.06,0,.35,0,1,.65l.11.09h.13s.49.07.83,2.67v4.16l-.45,3.35Z"></path><path class="fedb1673-f2f1-45e9-9da1-9893957a53d0" d="M108.54,4.56v-.1c0-1.12-.78-2-2.3-2.5l-.1,0L106,2a16.61,16.61,0,0,1-3,.48c-.82,0-1.92.74-3.48,2.36-.37.43-.77.84-1.18,1.23l-.15.1a8.29,8.29,0,0,0-2.44,3.26l-.06.16.08.15a2.05,2.05,0,0,1,.16.88v.87a4.21,4.21,0,0,1-.19,1.06l0,.07v.08c.25,2.29,1.46,2.77,2.43,2.77a6.64,6.64,0,0,0,1.83-.54c-.06,1-.08,1.72-.08,2.29v.7A32.16,32.16,0,0,0,99.6,22v.06l.29,1v4.9c0,.06,0,.37-.2,1.85v2a6.19,6.19,0,0,0,.19,1.28c0,.17-.08.74-.19,1.72v2.43a16.81,16.81,0,0,1-.2,2.35l.19,3a4.55,4.55,0,0,0-.48,1.82v.19c0,2.11.72,3.38,2.19,3.78a32.94,32.94,0,0,1,3.54.67l.09,0v0l.5-.15c1.78-.54,2.61-1.15,2.61-1.92v-.2a32.12,32.12,0,0,1,.38-4.89v-.11a48.25,48.25,0,0,1-.38-5.09,14.88,14.88,0,0,1,.09-1.64c-.06-3.53-.09-6.7-.09-9.41v-3.6a90.1,90.1,0,0,1,.48-10.72v-.06c-.06-3.36-.1-5.58-.1-6.79"></path><path class="fedb1673-f2f1-45e9-9da1-9893957a53d0" d="M137.53,34.27c-.16-1.61-.92-2.13-1.65-2.27-.06-4.22-.17-7-.31-8.14a23.7,23.7,0,0,1,.22-3.26c-.09-1.18-.14-2.07-.14-2.62a14.54,14.54,0,0,1,.23-1.74,4.26,4.26,0,0,0-.23-1.17,23.89,23.89,0,0,1,.6-6.07l0-.12,0-.12a20.17,20.17,0,0,1-.87-4.69c0-.8-.45-1.82-2.63-2.13h-.17l-1,.28a10.29,10.29,0,0,0-1.9-.28,7.18,7.18,0,0,0-1.78.4c-.47,0-1.12.52-2.67,4.11a4.62,4.62,0,0,1-.49,1.61l-.06.09c-1.38,3.06-1.72,3.71-1.77,3.78l-.09.07,0,.1c-.74,2.08-1.24,3.43-1.51,4a2.58,2.58,0,0,0-1,1.79v.45a3.2,3.2,0,0,0-.58,1.82,36.73,36.73,0,0,0-1.46,3.55A6.93,6.93,0,0,0,117,26.33c-.6.68-.69,1-.69,1.1a10.79,10.79,0,0,1-1.56,3.71l-.54,1.41c-.69,1-.75,1.22-.75,1.38s0,.16.39.87a.7.7,0,0,1-.05.25l-.06.11,0,.12a8.61,8.61,0,0,1,.09,1v.21a2.22,2.22,0,0,1-.26.9l0,.13,0,.13c.48,1.82,1.3,2.75,2.45,2.75l.17,0a10.62,10.62,0,0,1,1.26-.34,5.12,5.12,0,0,0,1.41.37h0l.84-.09c1.22.07,2.07.1,2.54.1a19.77,19.77,0,0,0,2.27-.39H127a.47.47,0,0,1,.41.2,3.36,3.36,0,0,1-.18.76l0,.16.08.14a1.94,1.94,0,0,1,.33.78v.19a42.46,42.46,0,0,1-.29,4.92c0,.62.64,1.2,2.06,1.9l.15.07.16-.06a2.84,2.84,0,0,1,.93-.26,8.49,8.49,0,0,1,1.33.09H132l.69-.1c2.08,0,3.14-.62,3.14-1.84a6.15,6.15,0,0,0-.23-1.35,3.26,3.26,0,0,1,.08-.82l0-.07v-.08a13,13,0,0,1-.09-1.4v-.62c0-.6,0-1.47.08-2.61l.11,0a.9.9,0,0,0,.23,0c1,0,1.52-.91,1.64-2.75v-.88a16.55,16.55,0,0,0-.09-2.11m-9.47-14.7v.21a9.59,9.59,0,0,0-.31,1.93v1.35c0,1.37,0,2.62-.09,3.78.06.45.09,1.55.09,3.27v.59l0,.12a7.92,7.92,0,0,1,.36,1.53l-.16.19a2.38,2.38,0,0,1-.82-.3l-.19-.12-.19.11a3,3,0,0,1-1.28.44h-1.69a12.44,12.44,0,0,1-2.17-.43,20.41,20.41,0,0,1,1.55-3.1l0-.1a23.44,23.44,0,0,1,2.44-6.14c.83-2.24,1.54-4.11,2.17-5.61a1.86,1.86,0,0,0-.08.41v.59a2.25,2.25,0,0,0,.3,1.29"></path></g></g></svg>