<?xml version="1.0" encoding="utf-8"?>
<!-- Generator: Adobe Illustrator 22.1.0, SVG Export Plug-In . SVG Version: 6.00 Build 0)  -->
<svg version="1.2" baseProfile="tiny" id="Layer_1" xmlns="http://www.w3.org/2000/svg" xmlns:xlink="http://www.w3.org/1999/xlink"
	 x="0px" y="0px" viewBox="0 0 184.9 254.9" xml:space="preserve">
<g>
	<g>
		<path fill="#FFFFFF" d="M51.9,48.2c-0.3-3.2-5.1-3.8-6.9-4.1c-0.6,0-1.1,0.1-1.7,0.2c-2-0.1-3.9-0.2-5.6-0.2h-4.3
			c-0.8-0.9-1.3-1.2-1.9-1.2l-0.8,0.2c-0.2,0-0.5-0.1-1-0.3l-0.2-0.1l-1.5,0.2c-1.3-0.3-2.1-0.4-2.7-0.4h-3.4
			c-1.8,0-2.8,0.8-3.3,1.6c-4.3,0.1-6.6,0.2-6.8,0.2c-0.5,0-1-0.1-1.5-0.3L10,43.8l-0.2,0c-1.2,0.3-3,0.4-5.3,0.4H3.8
			c-0.5,0-0.9,0.3-1.1,0.7C1.8,45.7,1,47.1,0,49.5l0,0.3c0,0.2,0,0.7,1,6.8c0.3,2.3,1.8,5,6.9,5l0.4-0.1c1-0.5,2.4-0.9,4.3-1.1
			c1.8,0.3,2.9,0.4,3.4,0.4h1.3c0.3,0,0.6,0,0.9-0.1c0.1,0.8,0.1,1.4,0.1,1.9v6c0,0.4,0.1,1.1,0.4,2c-0.1,3.6-0.3,5.9-0.6,6.9l0,0.2
			l0,0.2c0.3,1.7,0.4,2.3,0.4,2.5c0,3.7-0.4,6.6-1.2,8.6l-0.1,0.2l0,0.2c0.7,3.4,0.8,4.6,0.8,4.9l-0.4,11l0.4,3.9
			c0,1.1-0.3,2.7-1,4.9l0,0.6l0,0.3c0.7,1.9,0.9,2.7,0.9,3c-0.2,0.6-0.4,2-0.6,6.4l0,0.9h0.4c0,0,0,0.1,0,0.2c0,1.3-0.1,4-0.4,8
			c0,1,0.3,1.9,0.9,2.7c1,2.7,3.4,4,7.4,4c3.9-0.2,5.5-0.4,6.2-0.5c0.1,0.1,0.3,0.1,0.4,0.1h0.8l0.2-0.1c2.2-1.4,3.2-2.6,3.2-3.8
			c-0.3-3-0.4-5.2-0.4-6.6c0-0.9,0.1-2.6,0.4-5.3c-0.4-3.2-0.7-5.3-1-6.3c0-1.3-0.1-3.8-0.2-7.2c0-0.3,0.1-0.7,0.2-1.2l0-0.1l0-0.1
			c-0.1-1.1-0.2-2.1-0.2-2.9V98c0-2,0.3-3,0.5-3.5l0.1-0.2l-1.2-7.6c0.1-7.7,0.3-12.6,0.4-14.6c-0.3-2.4-0.4-4.4-0.4-6
			c0-0.4,0.1-2.2,0.4-5.3c3.1-0.2,5.3-0.3,6.4-0.3c1.3,0.4,2.5,0.6,3.7,0.6l1-0.2c0.9,0.3,2,0.4,3.3,0.6l0.3,0l0.3-0.2
			c1.2-1.1,1.9-2.5,1.9-4.1v-3c0-1.6,0.2-2.8,0.5-3.7l0.1-0.2L52.5,50C52.3,49.2,52.2,48.5,51.9,48.2"/>
		<path fill="#FFFFFF" d="M128.5,43.1l-0.4-0.1l-0.3,0.2c-0.2,0.1-1,0.3-5.3,0.5l-2.1-0.6l-0.2,0c-1.8,0-4.2,0.9-4.8,5.3l0,0.1
			l0,0.1c0.5,2.5,0.8,4.2,0.8,5.1c0,0.4-0.1,1.4-0.4,3.8c0,3.2-0.5,5.7-1.5,7.5l-0.1,0.4c0,5.7-0.5,10.9-1.4,15.7v1.4
			c0,0.1,0,0.2,0,0.2h-0.5v0.8c0,2.5-0.3,4.5-1,6.1l-0.1,0.2l0.2,1.3v2.4c-0.5,2-0.8,4.5-0.8,7.4c-0.5,3.8-0.9,6.8-1.2,9.2L109,108
			c-0.3-4.2-0.9-7.7-1.8-10.3v-1.9c0-0.6,0-1.3-0.2-1.7c-0.2-8.1-0.5-10.7-1-11.6c0-2.1-0.2-5.1-0.6-8.9l0-8.5
			c-0.5-4.8-1-8.1-1.4-10v-1c0-0.4,0.1-1.5,0.8-4.2l0-0.1l0-0.1c-0.2-3.7-1.4-5.9-3.4-6.5l-0.2,0c-0.1,0-0.2,0-3,0.4h-4.7
			c-0.5,0-1.3,0.1-1.8,0.4c-3.8,0.1-4.6,2-4.6,3.6v1c0,1.1,0.2,2.1,0.6,2.8c-0.1,2.7-0.2,4.9-0.2,6.6v2.5c0,1.4-0.4,3.7-1.2,6.6
			l0,0.1v6.4c-0.2,2.1-0.4,3.1-0.5,3.5h-0.2l0,0.7c-0.3,3.8-0.6,6.4-1.2,7.8l-0.1,0.2l0,0.2c0.1,0.7,0.2,1.3,0.2,1.7v1.2
			c0,0.6-0.2,2.3-1.2,6.7l-0.1,0.3l0.1,0.2c0.2,0.5,0.3,1,0.4,1.3l-0.6,3.2l0,1.9l-1.1,7.2c-0.2-0.8-0.5-2-0.9-3.6l0-2.5
			c-1.5-9.2-1.8-11.7-1.8-12.2c-0.9-6.4-1.4-10.2-1.4-11.4c0-1.1,0.1-2.8,0.2-5.1c-0.3-3-0.7-6.3-1.3-9.6c-0.4-5.3-0.8-7.3-1.3-8
			c0.4-3.3,0.5-6.1,0.5-8.3c-0.1-1.2-0.2-2.5-0.8-3c-0.2-1.7-1.3-2.7-3.2-2.7h-1.2c-0.1,0-0.3,0-2.2,0.4h-2.3c-2-0.7-3.5-1-4.5-1
			h-1.2c-1.7,0-2.9,1.5-3.6,4.6c0,0.2,0,0.4,1.2,5.9l2.4,7.5c0.4,3.7,0.6,5.2,0.8,5.8c0.1,3.8,0.4,6.8,0.8,8.8l0,2.7l3.6,28.4
			c-0.1,0.3-0.2,0.5-0.2,0.7l0,0.2c0.4,1.3,1.4,7.4,3,17.9v1.2c0,0.8-0.1,1.7-0.4,2.6l0,0.2c0,0.4,0.1,0.6,0.2,0.8
			c0.2,3.6,0.5,5.1,1,5.7c0.5,3.1,5.8,3.6,7.7,3.7l2.8,0c2.1-0.5,3.6-0.8,4.4-0.8l2.5,0.2c1.4,0,3.2-0.5,4.2-3.1l0-0.3
			c0-0.1,0-0.3-0.1-0.4c0.1-0.1,0.2-0.3,0.2-0.4l0.1-0.3c0-0.1,0.1-1.1,1-6.9l0-0.1l0-0.1c-0.3-1.3-0.4-1.9-0.4-2.3l0.2-0.7
			c0.4-3.2,0.9-4.4,1.3-5c0.7-1.4,1.1-4.5,1.1-9.3c0.6-3.6,1-6.3,1.2-8.2v6.9c0.5,4.4,0.9,7.2,1.2,8.4c0.6,5.7,1.1,9.3,1.6,10.7
			c-0.1,1.1-0.2,2-0.2,2.7v2.8c0,0.8,0.1,1.6,0.4,2.4l-0.2,0.1v0.5c0,0.6,0.3,1.3,0.8,1.9l0.2,0.2l0.3,0c6.5,0.8,10.7,1.2,12.7,1.2
			c0.1,0,0.4,0,2.3,0.6l0.2,0.1l0.2,0c1.2-0.3,2.3-0.6,2.8-1.2c2-0.2,3.1-1.4,3.1-3.4v-1.2c0-3.1,0.7-7.4,2-12.7l0-0.2l0-0.2
			c-0.3-1.8-0.4-2.7-0.4-3.1v-0.8c0-0.6,0.2-2.2,1-6.6v-2.4c0-1.6,0.5-4.8,1.4-9.4c0.9-11.5,1.8-18.6,2.6-21.1c0.4-2.7,1.1-9,2-18.6
			c2.5-8.4,2.8-10.2,2.8-10.9C132.4,46,131.1,44.3,128.5,43.1"/>
		<path fill="#FFFFFF" d="M184.5,82.7c0-0.2,0.1-1.1,0.2-2.7l0-0.4l-0.3-0.3c-0.4-0.4-0.6-0.6-0.7-0.7c0-2.6,0.1-4.8,0.2-6.8
			c0-0.3-0.1-1-0.2-2.2c0.1-2.6,0.2-4.3,0.2-5.2l-0.2-6.6c-0.8-2.9-1.8-4.9-3.1-6.1c-2.8-2-5.4-4.1-8-6.3c-1.4-1.1-4.6-2.1-9.7-3
			l-1,0c-3.7,0.8-7,1.4-10,1.8c-3.1,0-5.1,1-6.1,2.9c-1.9,1.8-3.6,3.7-5,5.7c-1.2,0.4-2.2,2.5-3.3,9.6l0,7.7l0.8,6.1
			c0,6,0.1,13.8,0.2,23.3c0.3,1.6,0.4,3,0.4,4.1v3.5c-0.4,4.5-0.4,4.8-0.4,4.9l0,3l-0.6,4.4l0.7,2.9c1.7,3.3,1.9,4,1.9,4.2
			c0.9,4.1,2.4,7,4.7,8.5c2.1,0.9,3.6,1.6,4.3,2.3l0.2,0.1l0.2,0c2.4,0.5,5.2,1.3,8.4,2.4l3.4,0c0.2,0,0.3,0,2.8-0.6h4.2
			c1.7,0,4.3-1.2,8-3.6c2.7-2.7,3.3-3,3.4-3h0.5l0.2-0.4c2.2-3.7,3.3-7,3.3-10v-15.8c0-8.6,0.3-15.7,0.8-21.3l0-0.1l0-0.1
			C184.6,83.7,184.5,82.9,184.5,82.7 M166.7,84.1c0.8,7.6,1,9.5,1,9.7v14.8c0,0.1,0,0.7-0.4,3.8v6.4c0,2.9-0.8,4.8-2.6,5.8
			c-0.2-0.1-0.3-0.1-0.5-0.2l-0.1,0l-2,0c-4.1-1-6.1-2.8-6.1-5.5v-8c0-1.4,0.1-3.5,0.2-6.4l0-0.2l-0.1-0.2c-0.3-0.6-0.5-1.2-0.5-1.8
			v-7c0-0.7,0.1-1.7,0.4-3c0-0.8-0.2-1.7-0.6-2.7c0.1-1.8,0.2-3.4,0.2-4.7V67.7c0.3-5.7,1-6.4,1-6.4h0.5l0.2-0.5c0.6-1.3,2-2,4.2-2
			h1.6c0.1,0,0.8,0.1,2.3,1.4l0.2,0.2h0.3c0,0,1.1,0.2,1.8,5.8l0,9.1l-1,7.3V84.1z"/>
		<path fill="#FFFFFF" d="M74.7,157.7v-0.2c0-2.5-1.7-4.3-5-5.5l-0.2-0.1l-0.2,0.1c-3.1,0.7-5.3,1-6.6,1c-1.8,0-4.2,1.6-7.6,5.2
			c-1.7,1.9-2.3,2.5-2.6,2.7l-0.3,0.2c-2.6,2.2-4.4,4.6-5.3,7.1l-0.1,0.3l0.2,0.3c0.2,0.4,0.3,1.1,0.3,1.9v1.9
			c0,0.6-0.1,1.4-0.4,2.3l0,0.2l0,0.2c0.5,5,3.2,6.1,5.3,6.1c0.4,0,1.2-0.2,4-1.2c-0.1,2.1-0.2,3.8-0.2,5l0,1.5
			c-0.3,1.6-0.5,4.5-0.7,9v0.1l0.6,2.1v10.7c0,0.1-0.1,0.8-0.4,4v4.4c0,0.6,0.1,1.5,0.4,2.8c0,0.4-0.2,1.6-0.4,3.8v5.3
			c0,1.5-0.1,3.2-0.4,5.1l0.4,6.6c-0.7,1.5-1,2.8-1,4v0.4c0,4.6,1.6,7.4,4.8,8.2c2.2,0.3,4.9,0.8,7.7,1.5l0.2,0.1v0.1l1.1-0.3
			c3.9-1.2,5.7-2.5,5.7-4.2v-0.4c0-3.5,0.3-7.1,0.8-10.7l0-0.1l0-0.1c-0.4-3.1-0.7-6.9-0.8-11.1c0-1.3,0.1-2.4,0.2-3.6
			c-0.1-7.7-0.2-14.6-0.2-20.5V196c0-10.1,0.4-18,1.1-23.4l0-0.1v-0.1C74.8,165.1,74.7,160.3,74.7,157.7"/>
		<path fill="#FFFFFF" d="M138,222.5c-0.4-3.5-2-4.6-3.6-4.9c-0.1-9.2-0.4-15.2-0.7-17.8c0-2.3,0.2-4.7,0.5-7.1
			c-0.2-2.6-0.3-4.5-0.3-5.7c0-0.4,0.1-1.3,0.5-3.8c0-0.6-0.2-1.5-0.5-2.5c0-5.8,0.4-10.2,1.3-13.3l0.1-0.3l-0.1-0.3
			c-0.9-2.4-1.5-5.9-1.9-10.2c0-1.7-1-4-5.7-4.7h-0.4l-2.2,0.6c-3.5-0.6-3.9-0.6-4.1-0.6c-1.4,0.1-2.7,0.4-3.9,0.8
			c-1,0.1-2.4,1.1-5.8,9c-0.6,2.9-1,3.4-1.1,3.5l-0.1,0.2c-3,6.7-3.7,8.1-3.9,8.2l-0.2,0.1l-0.1,0.2c-1.6,4.5-2.7,7.5-3.3,8.7
			c-1.5,1.4-2.3,2.7-2.3,3.9v1c-0.8,1.1-1.2,2.5-1.3,4c-1.8,3.9-2.8,6.5-3.2,7.7c-1.6,2.5-2.5,4.4-2.6,5.7c-1.3,1.5-1.5,2.1-1.5,2.4
			c-0.4,2.2-1.5,4.9-3.4,8.1l-1.2,3.1c-1.5,2.2-1.6,2.7-1.6,3c0,0.2,0,0.3,0.8,1.9c0,0.3-0.1,0.5-0.1,0.5l-0.1,0.2l0,0.3
			c0.1,0.9,0.2,1.6,0.2,2.2v0.4c0,0.5-0.2,1.2-0.6,2l-0.1,0.3l0.1,0.3c1,4,2.8,6,5.3,6l0.4-0.1c0.1,0,0.5-0.2,2.8-0.7
			c2.1,0.7,2.7,0.8,3.1,0.8h0l1.8-0.2c2.7,0.1,4.5,0.2,5.6,0.2c0.3,0,1.2-0.1,4.9-0.9h5.3c0.4,0,0.7,0.1,0.9,0.4
			c0,0.1-0.1,0.5-0.4,1.6l-0.1,0.4l0.2,0.3c0.7,1.2,0.7,1.6,0.7,1.7v0.4c0,3.4-0.2,7-0.6,10.7c0,1.3,1.4,2.6,4.5,4.1l0.3,0.2
			l0.3-0.1c1.4-0.5,1.8-0.6,2-0.6c1.1,0,2.1,0.1,2.9,0.2l0.1,0l1.5-0.2c4.5,0,6.8-1.3,6.8-4c0-0.7-0.2-1.6-0.5-2.9
			c0-0.8,0.1-1.4,0.2-1.8l0-0.2l0-0.2c-0.1-1.2-0.2-2.2-0.2-3.1v-1.3c0-1.3,0.1-3.2,0.2-5.7c0.1,0,0.2-0.1,0.2-0.1
			c0.1,0,0.3,0.1,0.5,0.1c2.1,0,3.3-2,3.6-6v-1.9C138.2,225,138.1,223.5,138,222.5 M117.3,190.4l0,0.4c-0.4,2-0.7,3.3-0.7,4.2v3
			c0,3-0.1,5.7-0.2,8.2c0.1,1,0.2,3.4,0.2,7.1v1.3l0,0.3c0.5,1.4,0.7,2.6,0.8,3.3l-0.3,0.4c-0.7-0.1-1.3-0.4-1.8-0.6l-0.4-0.2
			l-0.4,0.2c-1.5,0.8-2.3,1-2.8,1l-3.7,0c-2.7-0.4-4.1-0.7-4.7-0.9c0.2-0.8,1-2.6,3.4-6.8l0.1-0.2c1.3-5.1,3.1-9.5,5.3-13.4
			c1.8-4.9,3.4-9,4.7-12.2c-0.2,0.6-0.2,0.7-0.2,0.9v1.3C116.7,188.8,116.9,189.8,117.3,190.4"/>
		<path fill="#FFFFFF" d="M65.4,0c3.1,0,5.4,1,7.5,2.9c0.3,0.2,0.3,0.6,0,0.9l-1.9,2c-0.2,0.2-0.5,0.2-0.8,0
			c-1.3-1.2-3.1-1.8-4.8-1.8c-4,0-7,3.3-7,7.3c0,3.9,3,7.2,7,7.2c1.9,0,3.5-0.7,4.8-1.8c0.2-0.2,0.6-0.2,0.8,0l1.9,2
			c0.2,0.2,0.2,0.6,0,0.8c-2.1,2.1-4.8,3-7.6,3c-6.2,0-11.3-5-11.3-11.2C54.1,5,59.2,0,65.4,0"/>
		<path fill="#FFFFFF" d="M75.2,21.3l9.7-21C85,0.2,85.1,0,85.4,0h0.3c0.3,0,0.4,0.2,0.5,0.3l9.6,21c0.2,0.4-0.1,0.8-0.5,0.8h-2.7
			c-0.5,0-0.7-0.2-0.9-0.6l-1.5-3.4h-9.3l-1.5,3.4c-0.1,0.3-0.4,0.6-0.9,0.6h-2.7C75.3,22.1,75,21.7,75.2,21.3 M88.7,14.7l-3.1-6.9
			h-0.1l-3.1,6.9H88.7z"/>
		<path fill="#FFFFFF" d="M99.2,0.9c0-0.3,0.2-0.6,0.6-0.6h12.7c0.3,0,0.6,0.3,0.6,0.6v2.6c0,0.3-0.3,0.6-0.6,0.6h-9.2v5.9h7.7
			c0.3,0,0.6,0.3,0.6,0.6v2.6c0,0.3-0.3,0.6-0.6,0.6h-7.7v7.9c0,0.3-0.3,0.6-0.6,0.6h-2.9c-0.3,0-0.6-0.3-0.6-0.6V0.9z"/>
		<path fill="#FFFFFF" d="M116.9,0.9c0-0.3,0.2-0.6,0.6-0.6h12.7c0.3,0,0.6,0.3,0.6,0.6v2.6c0,0.3-0.2,0.6-0.6,0.6h-9.2v5.1h7.7
			c0.3,0,0.6,0.3,0.6,0.6v2.6c0,0.3-0.3,0.6-0.6,0.6h-7.7v5.5h9.2c0.3,0,0.6,0.3,0.6,0.6v2.6c0,0.3-0.2,0.6-0.6,0.6h-12.7
			c-0.3,0-0.6-0.3-0.6-0.6V0.9z"/>
		<polygon fill="#FFFFFF" points="34.1,163.3 25.4,163.2 16.9,163.4 8.2,163.3 8,158 16.8,157.8 25.4,157.9 34.5,157.9 		"/>
		<polygon fill="#FFFFFF" points="177.3,163.5 168.7,163.5 159.8,163.9 151.3,163.5 150.3,158 159.8,158.5 168.7,158.4 177.2,158.3 
					"/>
	</g>
</g>
<g>
</g>
<g>
</g>
<g>
</g>
<g>
</g>
<g>
</g>
<g>
</g>
</svg>
